<svg id="Layer_1" data-name="Layer 1" xmlns="http://www.w3.org/2000/svg" viewBox="0 0 528.13 808.8"><defs><style>.cls-1{fill:#0042cb;opacity:0.7;}</style></defs><path class="cls-1" d="M779,361.79" transform="translate(-275.56 -92.2)"/><path class="cls-1" d="M378.28,377.11c22.22-32.4,45.27-64.29,66.43-97.39,16-25,30.92-50.6,44.63-76.88,13.94-26.72,25.64-54,37.37-81.82q5.84-13.78,11.65-27.59A8,8,0,0,1,539,92.2v.19a8,8,0,0,1,.64,1.23q5.82,13.8,11.65,27.59C563,149,574.72,176.31,588.66,203q12.48,23.91,26.27,47.1A413.71,413.71,0,0,1,378.28,377.11Z" transform="translate(-275.56 -92.2)"/><path class="cls-1" d="M310.26,576.5q-15.48,0-30.8-.66c8-38,23.06-71.38,38.38-100.46A509.23,509.23,0,0,0,665.66,328.23c24.25,35,49.13,69.64,71.17,106A707.27,707.27,0,0,1,310.26,576.5Z" transform="translate(-275.56 -92.2)"/><path class="cls-1" d="M390.09,855.47A905.91,905.91,0,0,0,787.54,726.76C765.57,785.18,723,837,669.47,867.34,629.9,889.8,584.46,901,539,901v-.19c-45.46,0-90.9-11.2-130.47-33.66C405,865.13,398.45,861.31,390.09,855.47Z" transform="translate(-275.56 -92.2)"/><path class="cls-1" d="M803.69,625.92A833,833,0,0,1,319.77,783.48c-.76-1.12-1.51-2.26-2.25-3.41a278.58,278.58,0,0,1-42-115.3q17,.74,34.2.73A795.37,795.37,0,0,0,777.69,514.22C792.22,550.13,802,587.8,803.69,625.92Z" transform="translate(-275.56 -92.2)"/><path class="cls-1" d="M299,361.61" transform="translate(-275.56 -92.2)"/></svg>